<?xml version="1.0" encoding="utf-8"?>
<!-- Generator: Adobe Illustrator 21.1.0, SVG Export Plug-In . SVG Version: 6.00 Build 0)  -->
<svg version="1.1" id="Layer_1" xmlns="http://www.w3.org/2000/svg" xmlns:xlink="http://www.w3.org/1999/xlink" x="0px" y="0px"
	 viewBox="0 0 442.7 442.7" style="enable-background:new 0 0 442.7 442.7;" xml:space="preserve">
<style type="text/css">
	.st0{fill:#212121;}
	.st1{fill:#FFFFFF;}
	.st2{fill:#F79158;}
	.st3{fill:none;stroke:#212121;stroke-width:6;stroke-linecap:round;stroke-linejoin:round;stroke-miterlimit:10;}
</style>
<g>
	<path class="st0" d="M402.7,439.6H44.2c-13.9,0-25.5-11.4-25.5-25.5v-90c0-13.9,11.4-25.5,25.5-25.5h358.7
		c13.9,0,25.5,11.4,25.5,25.5v90C428.2,428.1,416.7,439.6,402.7,439.6z"/>
</g>
<g>
	<g>
		<path class="st0" d="M48.7,260.8c0,0,36.2-17.3,66.2,7.7c30,25,8.8,41.4,4.4,42.9c-4.4,1.7-11.5,2.9-17-2.9
			c-5.5-5.8-6.5-7-9.7-0.9c-3.2,6.1-5.2,10.8-16.8,12.4s-14.1-10.3-15.8-12.9c-1.7-2.7-4.1-5.6-9.7,0.9s-19.3,5.8-24.9-2.3
			C19.9,297.9,18,278.6,48.7,260.8z"/>
	</g>
	<g>
		<path class="st1" d="M73.8,325.3c-11.2,0-15.5-10-17.1-14.1c-0.2-0.5-0.5-1.2-0.6-1.5l0,0c-0.3,0.3-0.9,0.9-1.5,1.5
			c-3.5,4.2-9.2,6.5-15.8,6.2c-7.1-0.3-13.5-3.6-17.1-8.8c-3.9-5.6-5.3-13-3.6-20.3c1.8-8.2,8.2-20.3,28.3-32l0.3-0.2
			c0.5-0.2,10-4.7,23.5-5.9c18-1.7,34.7,3.3,48.1,14.4c13.3,11.2,19.1,22.3,17.3,33.2c-1.8,10.5-10.6,17-14.4,18.3
			c-8.9,3.2-16.8,1.7-22.3-4.1c-0.6-0.6-1.1-1.2-1.7-1.8l-0.3,0.6c-3.2,6.1-6.5,12.4-20.2,14.2C75.7,325.3,74.7,325.3,73.8,325.3z
			 M56.3,299.1c0.2,0,0.3,0,0.5,0c4.4,0.3,6.7,3.9,7.6,5.3c0.5,0.8,0.9,1.8,1.4,2.9c2.4,5.8,4.5,8.5,9.4,7.7
			c8.5-1.2,9.9-3.8,12.6-8.9l0.5-0.8c1.2-2.3,3.2-6.1,7.1-6.5c4.1-0.6,6.7,2.3,10.6,6.5c1.1,1.1,3.9,4.2,11.5,1.5
			c0.9-0.3,6.8-4.1,7.9-10.8c1.1-7-3.6-15.2-13.8-23.5c-11.4-9.4-24.9-13.5-40.3-12.1c-10.9,0.9-19.1,4.4-20.3,5
			c-16.8,9.7-22,19.1-23.3,25.3c-1.5,6.7,1.2,11.2,2,12.4c1.8,2.6,5.5,4.4,9.4,4.5c3.2,0.2,6.1-0.9,7.6-2.6
			C48,303.5,51.6,299.1,56.3,299.1z M56.8,309.1L56.8,309.1L56.8,309.1z"/>
	</g>
</g>
<g>
	<g>
		<path class="st0" d="M342.1,260.8c0,0,36.2-17.3,66.2,7.7c30,25,8.8,41.4,4.4,42.9c-4.4,1.7-11.5,2.9-17-2.9
			c-5.5-5.8-6.5-7-9.7-0.9c-3.2,5.9-5.2,10.8-16.8,12.4c-11.7,1.7-14.1-10.3-15.8-12.9c-1.7-2.7-4.1-5.6-9.7,0.9s-19.3,5.8-24.9-2.3
			C313.3,297.9,311.3,278.6,342.1,260.8z"/>
	</g>
	<g>
		<path class="st1" d="M367.1,325.3c-11.2,0-15.5-10-17.1-14.1c-0.2-0.5-0.5-1.2-0.6-1.5l0,0c-0.3,0.3-0.9,0.9-1.5,1.5
			c-3.5,4.2-9.2,6.5-15.8,6.2c-7.1-0.3-13.5-3.6-17.1-8.8c-3.9-5.6-5.3-13-3.6-20.3c1.8-8.2,8.2-20.3,28.3-32l0.3-0.2
			c0.5-0.2,10-4.7,23.5-5.9c18-1.7,34.7,3.3,48.1,14.4c13.3,11.2,19.1,22.3,17.3,33.2c-1.8,10.5-10.6,17-14.4,18.3
			c-8.9,3.2-16.8,1.7-22.3-4.1c-0.6-0.6-1.1-1.2-1.7-1.8l-0.3,0.6c-3.2,6.1-6.5,12.4-20.2,14.2C368.9,325.3,368,325.3,367.1,325.3z
			 M349.7,299.1c0.2,0,0.3,0,0.5,0c4.4,0.3,6.7,3.9,7.6,5.3c0.5,0.8,0.9,1.8,1.4,2.9c2.4,5.8,4.5,8.5,9.4,7.7
			c8.5-1.2,9.9-3.8,12.6-8.9l0.5-0.8c1.2-2.3,3.2-6.1,7.1-6.5c4.1-0.6,6.7,2.3,10.6,6.5c1.1,1.1,3.9,4.2,11.5,1.5
			c0.9-0.3,6.8-4.1,7.9-10.8c1.1-7-3.6-15.2-13.8-23.5c-11.4-9.4-24.9-13.5-40.3-12.1c-10.9,0.9-19.1,4.4-20.3,5
			c-16.8,9.7-22,19.1-23.3,25.3c-1.5,6.7,1.2,11.2,2,12.4c1.8,2.6,5.5,4.4,9.4,4.5c3.2,0.2,6.1-0.9,7.6-2.6
			C341.3,303.5,344.8,299.1,349.7,299.1z M350.1,309.1L350.1,309.1L350.1,309.1z"/>
	</g>
</g>
<g>
	<g>
		<path class="st2" d="M57.8,356.7h-18c-5.9,0-10.8-4.9-10.8-10.8l0,0c0-5.9,4.9-10.8,10.8-10.8h18c5.9,0,10.8,4.9,10.8,10.8l0,0
			C68.5,351.9,63.8,356.7,57.8,356.7z"/>
	</g>
	<g>
		<path class="st1" d="M79.4,389.3H34.5c-3,0-5.5-2.4-5.5-5.5v-10.5c0-3,2.4-5.5,5.5-5.5h44.9c3,0,5.5,2.4,5.5,5.5v10.5
			C84.8,386.9,82.4,389.3,79.4,389.3z"/>
	</g>
	<g>
		<path class="st1" d="M65.7,422.7H34.5c-3,0-5.5-2.4-5.5-5.5v-10.5c0-3,2.4-5.5,5.5-5.5h31.2c3,0,5.5,2.4,5.5,5.5v10.5
			C71.2,420.2,68.8,422.7,65.7,422.7z"/>
	</g>
	<g>
		<path class="st2" d="M401.3,422.7h-20.8c-5.9,0-10.8-4.9-10.8-10.8l0,0c0-5.9,4.9-10.8,10.8-10.8h20.8c5.9,0,10.8,4.9,10.8,10.8
			l0,0C412,418,407.3,422.7,401.3,422.7z"/>
	</g>
	<g>
		<path class="st1" d="M412.1,389.3h-24.7c-3,0-5.5-2.4-5.5-5.5v-10.5c0-3,2.4-5.5,5.5-5.5h24.7c3,0,5.5,2.4,5.5,5.5v10.5
			C417.6,386.9,415.1,389.3,412.1,389.3z"/>
	</g>
	<g>
		<path class="st1" d="M412.1,356.7h-36.8c-3,0-5.5-2.4-5.5-5.5v-10.5c0-3,2.4-5.5,5.5-5.5h36.8c3,0,5.5,2.4,5.5,5.5v10.5
			C417.6,354.1,415.1,356.7,412.1,356.7z"/>
	</g>
	<g>
		<circle class="st1" cx="95.7" cy="343.1" r="13.5"/>
	</g>
	<g>
		<circle class="st2" cx="129.2" cy="345.9" r="13.5"/>
	</g>
	<g>
		<circle class="st1" cx="165.8" cy="345.9" r="13.5"/>
	</g>
	<g>
		<circle class="st1" cx="202.2" cy="345.9" r="13.5"/>
	</g>
	<g>
		<circle class="st1" cx="238.5" cy="345.9" r="13.5"/>
	</g>
	<g>
		<circle class="st1" cx="274.9" cy="345.9" r="13.5"/>
	</g>
	<g>
		<circle class="st1" cx="311.3" cy="345.9" r="13.5"/>
	</g>
	<g>
		<circle class="st1" cx="347.8" cy="345.9" r="13.5"/>
	</g>
	<g>
		<circle class="st2" cx="106.8" cy="378.7" r="13.5"/>
	</g>
	<g>
		<circle class="st2" cx="143.3" cy="378.7" r="13.5"/>
	</g>
	<g>
		<circle class="st1" cx="179.7" cy="378.7" r="13.5"/>
	</g>
	<g>
		<circle class="st1" cx="216.1" cy="378.7" r="13.5"/>
	</g>
	<g>
		<circle class="st1" cx="252.5" cy="378.7" r="13.5"/>
	</g>
	<g>
		<circle class="st1" cx="288.9" cy="378.7" r="13.5"/>
	</g>
	<g>
		<circle class="st1" cx="325.4" cy="378.7" r="13.5"/>
	</g>
	<g>
		<circle class="st1" cx="361.8" cy="378.7" r="13.5"/>
	</g>
	<g>
		<circle class="st1" cx="92.9" cy="412" r="13.5"/>
	</g>
	<g>
		<circle class="st1" cx="129.2" cy="412" r="13.5"/>
	</g>
	<g>
		<circle class="st1" cx="165.8" cy="412" r="13.5"/>
	</g>
	<g>
		<circle class="st1" cx="202.2" cy="412" r="13.5"/>
	</g>
	<g>
		<circle class="st1" cx="239" cy="412" r="13.5"/>
	</g>
	<g>
		<circle class="st1" cx="274.9" cy="412" r="13.5"/>
	</g>
	<g>
		<circle class="st2" cx="311.3" cy="412" r="13.5"/>
	</g>
	<g>
		<circle class="st2" cx="347.8" cy="412" r="13.5"/>
	</g>
</g>
<g>
	<g>
		<path class="st0" d="M222,307.8c-39.6,0-75.9-12.4-102.2-34.9c-13.5-11.5-24-25.3-31.2-41.1c-7.6-16.5-11.5-34.7-11.5-54.3
			c0-19.6,3.8-37.9,11.5-54.4c7.3-15.9,17.7-29.9,31.2-41.5c26.4-22.9,62.6-35.5,102.2-35.5s75.8,12.6,102.2,35.5
			c13.5,11.7,24,25.6,31.2,41.5c7.6,16.5,11.5,34.9,11.5,54.4s-3.8,37.7-11.5,54.3c-7.3,15.8-17.7,29.6-31.2,41.1
			C298,295.4,261.6,307.8,222,307.8z"/>
	</g>
</g>
<g>
	<g>
		<path class="st0" d="M88,139.2c0,0-10.9-62.5,0-115.1s90.7,8.3,105.7,34.4C208.7,84.6,88,139.2,88,139.2z"/>
	</g>
	<g>
		<path class="st2" d="M102.9,126.9c0,0-4.4-36.4,0.9-67c5.3-30.5,8.8-32.6,22.6-26.1c13.8,6.5,29,16.4,34,28.8L127.9,106
			L102.9,126.9z"/>
	</g>
	<g>
		<path class="st0" d="M102.9,126.9c0,0,8.6-20.2,17.6-24.4c0,0,0.9-6.5-5.2-11.5c0,0,6.2-2.4,12.6,2c0,0-0.2-8.6-10.2-16.1
			c0,0,11.2-2,23.6,3.6c0,0,0.9-11.1-13.5-24.3c0,0,15.3-5.9,32.4,6.4l-13.8,39.6L102.9,126.9z"/>
	</g>
</g>
<g>
	<g>
		<path class="st0" d="M356.3,139.2c0,0,10.9-62.5,0-115.1s-90.7,8.3-105.7,34.4C235.7,84.6,356.3,139.2,356.3,139.2z"/>
	</g>
	<g>
		<path class="st2" d="M341.3,126.9c0,0,4.4-36.4-0.9-67c-5.3-30.5-8.8-32.6-22.6-26.1c-13.8,6.5-29,16.4-34,28.8l32.4,43.4
			L341.3,126.9z"/>
	</g>
	<g>
		<path class="st0" d="M341.3,126.9c0,0-8.6-20.2-17.6-24.4c0,0-0.9-6.5,5.2-11.5c0,0-6.2-2.4-12.6,2c0,0,0.2-8.6,10.2-16.1
			c0,0-11.2-2-23.6,3.6c0,0-0.9-11.1,13.5-24.3c0,0-15.3-5.9-32.4,6.4l13.8,39.6L341.3,126.9z"/>
	</g>
</g>
<path class="st1" d="M226.1,131.7c36,0,71.9,0.4,107.8-0.2c11.6-0.2,14.5,4.2,13,14.6c-2.6,18.8-2.9,38.3-22.5,49.5
	c-33.8,19.3-72.1,2.1-77.5-37.4c-2.6-18.7-12.9-15.1-24.4-16c-12.2-0.9-17.8,1.8-19.9,15.6c-5.8,37.8-38.7,55.3-71.7,39.9
	c-18.8-8.8-32.9-41-26.7-60.6c1.9-6.1,6.4-5.6,11-5.6c37,0,74,0,110.9,0C226.1,131.6,226.1,131.7,226.1,131.7z"/>
<path class="st1" d="M213.3,188.8c-4.9-0.1-8.7,0-10.2-4.2c-1.2-3.4,0.4-6.7,3.7-7.1c9.5-1,10.9-7.6,11.8-15
	c0.5-3.6,1.7-7.4,6.3-7.2c3.6,0.1,5.1,3.2,5.4,6.4c1,8,2.4,15.2,12.6,16.1c2.6,0.2,3.9,3.3,3.3,6c-0.9,4.4-4.8,5.6-8.3,4.9
	C229.4,186.7,220.8,183.3,213.3,188.8z"/>
<path class="st0" d="M296.3,142.3c9.8,0,19.5,0,29.3,0c4.7,0,9.2-0.1,9.8,6.7c1.7,18.9-12.7,38.3-31.4,42
	c-19.2,3.8-37.2-6.7-43.2-25.5c-1.4-4.4-2.1-9-3.6-13.3c-2.8-8.1,1-10.1,8.2-10C275.7,142.4,286,142.3,296.3,142.3z"/>
<path class="st0" d="M156.1,142.3c7.7,0,15.4,0.7,23-0.1c13.6-1.5,14.1,4,12.1,15.9c-5.9,33.8-36.9,38.7-56.6,28.6
	c-11.2-5.7-20.5-25.7-17.9-37.9c1.4-6.4,5.7-6.3,10.3-6.3C136.7,142.3,146.4,142.3,156.1,142.3C156.1,142.3,156.1,142.3,156.1,142.3
	z"/>
<path class="st1" d="M177,271.7c9.8-0.8,17.6,1.2,25.5,6.4c2.1,1.4,1.3,4.7-1.2,4.9c-9.3,0.6-16.8-1.8-25.2-6.3
	C173.8,275.4,174.4,271.9,177,271.7z"/>
<path class="st3" d="M342.4,222.3c0,0,14.4-10.6,40.6-2.5"/>
<path class="st3" d="M339.4,238c0,0,25.5-4.8,37.9,7.8"/>
<path class="st3" d="M97.1,219.3c0,0-14.4-10.6-40.6-2.5"/>
<path class="st3" d="M100.1,235c0,0-25.5-4.8-37.9,7.8"/>
</svg>
