<?xml version="1.0" encoding="utf-8"?>
<!-- Generator: Adobe Illustrator 21.1.0, SVG Export Plug-In . SVG Version: 6.00 Build 0)  -->
<svg version="1.1" id="Layer_1" xmlns="http://www.w3.org/2000/svg" xmlns:xlink="http://www.w3.org/1999/xlink" x="0px" y="0px"
	 viewBox="0 0 442.7 442.7" style="enable-background:new 0 0 442.7 442.7;" xml:space="preserve">
<style type="text/css">
	.st0{fill:#383838;}
	.st1{fill:#FFFFFF;}
	.st2{fill:#3B3B3B;}
	.st3{fill:#F79158;}
</style>
<g>
	<g>
		<path class="st0" d="M245.3,374.5l-6.7,8.9l-5.2,4.3c0,0-0.2-1.4-0.3-3.5C236.1,379.9,240.3,376.6,245.3,374.5z"/>
	</g>
	<g>
		<circle class="st1" cx="221.4" cy="221.4" r="221.4"/>
	</g>
	<g>
		<g>
			<path class="st2" d="M341.5,349H105c-9.2,0-16.8-7.5-16.8-16.8v-59.4c0-9.2,7.5-16.8,16.8-16.8h236.6c9.2,0,16.8,7.5,16.8,16.8
				v59.4C358.3,341.4,350.7,349,341.5,349z"/>
		</g>
		<g>
			<g>
				<path class="st2" d="M108,231c0,0,23.9-11.4,43.7,5.1s5.8,27.3,2.9,28.3c-2.9,1.1-7.6,1.9-11.2-1.9c-3.6-3.8-4.3-4.6-6.4-0.6
					s-3.4,7.1-11.1,8.2s-9.3-6.8-10.4-8.5c-1.1-1.8-2.7-3.7-6.4,0.6s-12.7,3.8-16.4-1.5C89,255.5,87.7,242.8,108,231z"/>
			</g>
			<g>
				<path class="st1" d="M124.5,273.6c-7.4,0-10.2-6.6-11.3-9.3c-0.1-0.3-0.3-0.8-0.4-1c0,0,0,0,0,0c-0.2,0.2-0.6,0.6-1,1
					c-2.3,2.8-6.1,4.3-10.4,4.1c-4.7-0.2-8.9-2.4-11.3-5.8c-2.6-3.7-3.5-8.6-2.4-13.4c1.2-5.4,5.4-13.4,18.7-21.1l0.2-0.1
					c0.3-0.1,6.6-3.1,15.5-3.9c11.9-1.1,22.9,2.2,31.7,9.5c8.8,7.4,12.6,14.7,11.4,21.9c-1.2,6.9-7,11.2-9.5,12.1
					c-5.9,2.1-11.1,1.1-14.7-2.7c-0.4-0.4-0.7-0.8-1.1-1.2l-0.2,0.4c-2.1,4-4.3,8.2-13.3,9.4C125.8,273.6,125.1,273.6,124.5,273.6z
					 M113,256.3c0.1,0,0.2,0,0.3,0c2.9,0.2,4.4,2.6,5,3.5c0.3,0.5,0.6,1.2,0.9,1.9c1.6,3.8,3,5.6,6.2,5.1c5.6-0.8,6.5-2.5,8.3-5.9
					l0.3-0.5c0.8-1.5,2.1-4,4.7-4.3c2.7-0.4,4.4,1.5,7,4.3c0.7,0.7,2.6,2.8,7.6,1c0.6-0.2,4.5-2.7,5.2-7.1c0.7-4.6-2.4-10-9.1-15.5
					c-7.5-6.2-16.4-8.9-26.6-8c-7.2,0.6-12.6,2.9-13.4,3.3c-11.1,6.4-14.5,12.6-15.4,16.7c-1,4.4,0.8,7.4,1.3,8.2
					c1.2,1.7,3.6,2.9,6.2,3c2.1,0.1,4-0.6,5-1.7C107.5,259.2,109.9,256.3,113,256.3z M113.3,262.9L113.3,262.9
					C113.3,262.9,113.3,262.9,113.3,262.9z"/>
			</g>
		</g>
		<g>
			<g>
				<path class="st2" d="M301.5,231c0,0,23.9-11.4,43.7,5.1s5.8,27.3,2.9,28.3c-2.9,1.1-7.6,1.9-11.2-1.9s-4.3-4.6-6.4-0.6
					c-2.1,3.9-3.4,7.1-11.1,8.2c-7.7,1.1-9.3-6.8-10.4-8.5c-1.1-1.8-2.7-3.7-6.4,0.6s-12.7,3.8-16.4-1.5
					C282.5,255.5,281.2,242.8,301.5,231z"/>
			</g>
			<g>
				<path class="st1" d="M318,273.6c-7.4,0-10.2-6.6-11.3-9.3c-0.1-0.3-0.3-0.8-0.4-1c0,0,0,0,0,0c-0.2,0.2-0.6,0.6-1,1
					c-2.3,2.8-6.1,4.3-10.4,4.1c-4.7-0.2-8.9-2.4-11.3-5.8c-2.6-3.7-3.5-8.6-2.4-13.4c1.2-5.4,5.4-13.4,18.7-21.1l0.2-0.1
					c0.3-0.1,6.6-3.1,15.5-3.9c11.9-1.1,22.9,2.2,31.7,9.5c8.8,7.4,12.6,14.7,11.4,21.9c-1.2,6.9-7,11.2-9.5,12.1
					c-5.9,2.1-11.1,1.1-14.7-2.7c-0.4-0.4-0.7-0.8-1.1-1.2l-0.2,0.4c-2.1,4-4.3,8.2-13.3,9.4C319.2,273.6,318.6,273.6,318,273.6z
					 M306.5,256.3c0.1,0,0.2,0,0.3,0c2.9,0.2,4.4,2.6,5,3.5c0.3,0.5,0.6,1.2,0.9,1.9c1.6,3.8,3,5.6,6.2,5.1c5.6-0.8,6.5-2.5,8.3-5.9
					l0.3-0.5c0.8-1.5,2.1-4,4.7-4.3c2.7-0.4,4.4,1.5,7,4.3c0.7,0.7,2.6,2.8,7.6,1c0.6-0.2,4.5-2.7,5.2-7.1c0.7-4.6-2.4-10-9.1-15.5
					c-7.5-6.2-16.4-8.9-26.6-8c-7.2,0.6-12.6,2.9-13.4,3.3c-11.1,6.4-14.5,12.6-15.4,16.7c-1,4.4,0.8,7.4,1.3,8.2
					c1.2,1.7,3.6,2.9,6.2,3c2.1,0.1,4-0.6,5-1.7C301,259.2,303.3,256.3,306.5,256.3z M306.8,262.9L306.8,262.9L306.8,262.9z"/>
			</g>
		</g>
		<g>
			<g>
				<path class="st3" d="M114,294.3h-11.9c-3.9,0-7.1-3.2-7.1-7.1v0c0-3.9,3.2-7.1,7.1-7.1H114c3.9,0,7.1,3.2,7.1,7.1v0
					C121,291.1,117.9,294.3,114,294.3z"/>
			</g>
			<g>
				<path class="st1" d="M128.2,315.8H98.6c-2,0-3.6-1.6-3.6-3.6v-6.9c0-2,1.6-3.6,3.6-3.6h29.6c2,0,3.6,1.6,3.6,3.6v6.9
					C131.8,314.2,130.2,315.8,128.2,315.8z"/>
			</g>
			<g>
				<path class="st1" d="M119.2,337.8H98.6c-2,0-3.6-1.6-3.6-3.6v-6.9c0-2,1.6-3.6,3.6-3.6h20.6c2,0,3.6,1.6,3.6,3.6v6.9
					C122.8,336.2,121.2,337.8,119.2,337.8z"/>
			</g>
			<g>
				<path class="st3" d="M340.6,337.8h-13.7c-3.9,0-7.1-3.2-7.1-7.1v0c0-3.9,3.2-7.1,7.1-7.1h13.7c3.9,0,7.1,3.2,7.1,7.1v0
					C347.6,334.7,344.5,337.8,340.6,337.8z"/>
			</g>
			<g>
				<path class="st1" d="M347.7,315.8h-16.3c-2,0-3.6-1.6-3.6-3.6v-6.9c0-2,1.6-3.6,3.6-3.6h16.3c2,0,3.6,1.6,3.6,3.6v6.9
					C351.3,314.2,349.7,315.8,347.7,315.8z"/>
			</g>
			<g>
				<path class="st1" d="M347.7,294.3h-24.3c-2,0-3.6-1.6-3.6-3.6v-6.9c0-2,1.6-3.6,3.6-3.6h24.3c2,0,3.6,1.6,3.6,3.6v6.9
					C351.3,292.6,349.7,294.3,347.7,294.3z"/>
			</g>
			<g>
				<circle class="st1" cx="139" cy="285.3" r="8.9"/>
			</g>
			<g>
				<circle class="st3" cx="161.1" cy="287.2" r="8.9"/>
			</g>
			<g>
				<circle class="st1" cx="185.2" cy="287.2" r="8.9"/>
			</g>
			<g>
				<circle class="st1" cx="209.2" cy="287.2" r="8.9"/>
			</g>
			<g>
				<circle class="st1" cx="233.2" cy="287.2" r="8.9"/>
			</g>
			<g>
				<circle class="st1" cx="257.2" cy="287.2" r="8.9"/>
			</g>
			<g>
				<circle class="st1" cx="281.2" cy="287.2" r="8.9"/>
			</g>
			<g>
				<circle class="st1" cx="305.3" cy="287.2" r="8.9"/>
			</g>
			<g>
				<circle class="st3" cx="146.3" cy="308.8" r="8.9"/>
			</g>
			<g>
				<circle class="st3" cx="170.4" cy="308.8" r="8.9"/>
			</g>
			<g>
				<circle class="st1" cx="194.4" cy="308.8" r="8.9"/>
			</g>
			<g>
				<circle class="st1" cx="218.4" cy="308.8" r="8.9"/>
			</g>
			<g>
				<circle class="st1" cx="242.4" cy="308.8" r="8.9"/>
			</g>
			<g>
				<circle class="st1" cx="266.4" cy="308.8" r="8.9"/>
			</g>
			<g>
				<circle class="st1" cx="290.5" cy="308.8" r="8.9"/>
			</g>
			<g>
				<circle class="st1" cx="314.5" cy="308.8" r="8.9"/>
			</g>
			<g>
				<circle class="st1" cx="137.1" cy="330.8" r="8.9"/>
			</g>
			<g>
				<circle class="st1" cx="161.1" cy="330.8" r="8.9"/>
			</g>
			<g>
				<circle class="st1" cx="185.2" cy="330.8" r="8.9"/>
			</g>
			<g>
				<circle class="st1" cx="209.2" cy="330.8" r="8.9"/>
			</g>
			<g>
				<circle class="st1" cx="233.5" cy="330.8" r="8.9"/>
			</g>
			<g>
				<circle class="st1" cx="257.2" cy="330.8" r="8.9"/>
			</g>
			<g>
				<circle class="st3" cx="281.2" cy="330.8" r="8.9"/>
			</g>
			<g>
				<circle class="st3" cx="305.3" cy="330.8" r="8.9"/>
			</g>
		</g>
		<g>
			<g>
				<g>
					<path class="st2" d="M222.4,262c-26.1,0-50.1-8.2-67.4-23c-8.9-7.6-15.8-16.7-20.6-27.1c-5-10.9-7.6-22.9-7.6-35.8
						c0-12.9,2.5-25,7.6-35.9c4.8-10.5,11.7-19.7,20.6-27.4c17.4-15.1,41.3-23.4,67.4-23.4s50,8.3,67.4,23.4
						c8.9,7.7,15.8,16.9,20.6,27.4c5,10.9,7.6,23,7.6,35.9c0,12.9-2.5,24.9-7.6,35.8c-4.8,10.4-11.7,19.5-20.6,27.1
						C272.5,253.8,248.5,262,222.4,262z"/>
				</g>
				<g>
					<path class="st1" d="M222.4,92.7c51,0,92.3,32.4,92.3,83.3s-41.3,82.6-92.3,82.6s-92.3-31.6-92.3-82.6S171.4,92.7,222.4,92.7
						 M222.4,86.1c-26.9,0-51.6,8.6-69.6,24.2c-9.3,8-16.5,17.6-21.5,28.5c-5.2,11.4-7.9,23.9-7.9,37.3c0,13.4,2.6,25.9,7.9,37.2
						c5,10.8,12.2,20.3,21.5,28.3c17.9,15.3,42.6,23.8,69.6,23.8c26.9,0,51.6-8.4,69.6-23.8c9.3-7.9,16.5-17.4,21.5-28.3
						c5.2-11.3,7.9-23.8,7.9-37.2c0-13.4-2.6-25.9-7.9-37.3c-5-10.9-12.2-20.5-21.5-28.5C274,94.7,249.3,86.1,222.4,86.1L222.4,86.1
						z"/>
				</g>
			</g>
			<g>
				<g>
					<path class="st2" d="M133.9,150.8c0,0-7.2-41.2,0-75.9c7.2-34.7,59.8,5.5,69.7,22.7S133.9,150.8,133.9,150.8z"/>
				</g>
				<g>
					<path class="st3" d="M143.7,142.7c0,0-2.9-24,0.6-44.2c3.5-20.1,5.8-21.5,14.9-17.2c9.1,4.3,19.1,10.8,22.4,19l-21.4,28.6
						L143.7,142.7z"/>
				</g>
				<g>
					<path class="st2" d="M143.7,142.7c0,0,5.7-13.3,11.6-16.1c0,0,0.6-4.3-3.4-7.6c0,0,4.1-1.6,8.3,1.3c0,0-0.1-5.7-6.7-10.6
						c0,0,7.4-1.3,15.6,2.4c0,0,0.6-7.3-8.9-16c0,0,10.1-3.9,21.4,4.2l-9.1,26.1L143.7,142.7z"/>
				</g>
			</g>
			<g>
				<g>
					<path class="st2" d="M310.9,150.8c0,0,7.2-41.2,0-75.9c-7.2-34.7-59.8,5.5-69.7,22.7S310.9,150.8,310.9,150.8z"/>
				</g>
				<g>
					<path class="st3" d="M301,142.7c0,0,2.9-24-0.6-44.2c-3.5-20.1-5.8-21.5-14.9-17.2c-9.1,4.3-19.1,10.8-22.4,19l21.4,28.6
						L301,142.7z"/>
				</g>
				<g>
					<path class="st2" d="M301,142.7c0,0-5.7-13.3-11.6-16.1c0,0-0.6-4.3,3.4-7.6c0,0-4.1-1.6-8.3,1.3c0,0,0.1-5.7,6.7-10.6
						c0,0-7.4-1.3-15.6,2.4c0,0-0.6-7.3,8.9-16c0,0-10.1-3.9-21.4,4.2l9.1,26.1L301,142.7z"/>
				</g>
			</g>
			<g>
				<path class="st1" d="M159.2,178.7c0,0,1-18,18.7-19.5c17.7-1.5,25.2,15.7,22.6,25.4c0,0-7.2-15.9-19.3-16.4
					C169.2,167.7,167.9,171.3,159.2,178.7z"/>
			</g>
			<g>
				<path class="st1" d="M284,178.7c0,0-1-18-18.7-19.5c-17.7-1.5-25.2,15.7-22.6,25.4c0,0,7.2-15.9,19.3-16.4
					C274,167.7,275.3,171.3,284,178.7z"/>
			</g>
			<g>
				<path class="st1" d="M222,219c-8.2,10.7-23.5,10-31-1.6c-1-1.6-1.4-3.7-1.6-5.6c-0.1-0.6,1.2-1.9,1.9-2c0.8-0.1,2.1,0.8,2.4,1.5
					c2.6,7.1,9.5,11.4,16.9,10.4c5.2-0.6,10.6-8.5,9.2-13.5c-0.2-0.7-0.9-1.3-1.5-1.8c-1.1-0.8-2.3-1.4-3.5-2.1
					c-3.4-2-3.6-4.7-0.4-7c4.1-3,11.8-3,15.9,0.1c2.7,2,2.6,4.6-0.2,6.5c-0.7,0.4-1.4,0.9-2.1,1.3c-3.6,2.2-4,3.2-2.9,7.3
					c2,7.3,7.5,10.7,14.8,8.6c5.2-1.5,9.7-3.9,10.9-10c0.1-0.7,1.7-1.7,2.4-1.5c0.9,0.2,2.1,1.4,2.1,2.2c0.1,1.5-0.4,3.1-1.1,4.4
					c-4.2,7.7-16.8,13.4-25.3,8.6C226.4,223.4,224.4,221,222,219z"/>
			</g>
		</g>
	</g>
</g>
</svg>
