<svg xmlns="http://www.w3.org/2000/svg" width="800" height="50"><g><title>Base16 Eighties</title><line id="base00" x1="25" x2="25" y1="0" y2="720" stroke="#2d2d2d" stroke-width="50"/><line id="base01" x1="75" x2="75" y1="0" y2="720" stroke="#393939" stroke-width="50"/><line id="base02" x1="125" x2="125" y1="0" y2="720" stroke="#515151" stroke-width="50"/><line id="base03" x1="175" x2="175" y1="0" y2="720" stroke="#747369" stroke-width="50"/><line id="base04" x1="225" x2="225" y1="0" y2="720" stroke="#a09f93" stroke-width="50"/><line id="base05" x1="275" x2="275" y1="0" y2="720" stroke="#d3d0c8" stroke-width="50"/><line id="base06" x1="325" x2="325" y1="0" y2="720" stroke="#e8e6df" stroke-width="50"/><line id="base07" x1="375" x2="375" y1="0" y2="720" stroke="#f2f0ec" stroke-width="50"/><line id="base08" x1="425" x2="425" y1="0" y2="720" stroke="#f2777a" stroke-width="50"/><line id="base09" x1="475" x2="475" y1="0" y2="720" stroke="#f99157" stroke-width="50"/><line id="base0A" x1="525" x2="525" y1="0" y2="720" stroke="#fc6" stroke-width="50"/><line id="base0B" x1="575" x2="575" y1="0" y2="720" stroke="#9c9" stroke-width="50"/><line id="base0C" x1="625" x2="625" y1="0" y2="720" stroke="#6cc" stroke-width="50"/><line id="base0D" x1="675" x2="675" y1="0" y2="720" stroke="#69c" stroke-width="50"/><line id="base0E" x1="725" x2="725" y1="0" y2="720" stroke="#c9c" stroke-width="50"/><line id="base0F" x1="775" x2="775" y1="0" y2="720" stroke="#d27b53" stroke-width="50"/></g></svg>