<svg xmlns="http://www.w3.org/2000/svg" xmlns:xlink="http://www.w3.org/1999/xlink" id="Layer_1" x="0" y="0" version="1.1" viewBox="0 0 1170.9 305.9" xml:space="preserve" style="enable-background:new 0 0 1170.9 305.9"><style type="text/css">.st0{fill:#212121}.st1{fill:#fff}.st2{fill:#f79158}.st3{fill:none;stroke:#212121;stroke-width:6;stroke-linecap:round;stroke-linejoin:round;stroke-miterlimit:10}.st4{fill:#f2f0ec}</style><g><g><g><path d="M270.2,305.9H18.9c-9.8,0-17.9-8-17.9-17.9v-63.1c0-9.8,8-17.9,17.9-17.9h251.5c9.8,0,17.9,8,17.9,17.9V288 C288.1,297.8,280,305.9,270.2,305.9z" class="st0"/></g><g><g><path d="M22.1,180.4c0,0,25.4-12.1,46.4,5.4s6.2,29,3.1,30.1c-3.1,1.2-8.1,2-11.9-2c-3.8-4-4.6-4.9-6.8-0.6 s-3.6,7.5-11.8,8.7s-9.9-7.2-11.1-9c-1.2-1.9-2.9-3.9-6.8,0.6s-13.5,4-17.4-1.6C1.9,206.5,0.5,193,22.1,180.4z" class="st0"/></g><g><path d="M39.6,225.7c-7.9,0-10.8-7-12-9.9c-0.1-0.3-0.3-0.9-0.4-1.1l0,0c-0.2,0.2-0.6,0.6-1.1,1.1 c-2.4,3-6.5,4.6-11.1,4.4c-5-0.2-9.5-2.6-12-6.2c-2.8-3.9-3.7-9.1-2.6-14.2c1.3-5.7,5.7-14.2,19.9-22.4l0.2-0.1 c0.3-0.1,7-3.3,16.5-4.1c12.6-1.2,24.3,2.3,33.7,10.1c9.4,7.9,13.4,15.6,12.1,23.3c-1.3,7.3-7.4,11.9-10.1,12.9 c-6.3,2.2-11.8,1.2-15.6-2.9c-0.4-0.4-0.7-0.9-1.2-1.3l-0.2,0.4c-2.2,4.3-4.6,8.7-14.1,10C41,225.7,40.2,225.7,39.6,225.7z M27.4,207.3c0.1,0,0.2,0,0.3,0c3.1,0.2,4.7,2.8,5.3,3.7c0.3,0.5,0.6,1.3,1,2c1.7,4,3.2,6,6.6,5.4c6-0.9,6.9-2.7,8.8-6.3 l0.3-0.5c0.9-1.6,2.2-4.3,5-4.6c2.9-0.4,4.7,1.6,7.4,4.6c0.7,0.7,2.8,3,8.1,1.1c0.6-0.2,4.8-2.9,5.5-7.5 c0.7-4.9-2.6-10.6-9.7-16.5c-8-6.6-17.4-9.5-28.3-8.5c-7.7,0.6-13.4,3.1-14.2,3.5c-11.8,6.8-15.4,13.4-16.4,17.7 c-1.1,4.7,0.9,7.9,1.4,8.7c1.3,1.8,3.8,3.1,6.6,3.2c2.2,0.1,4.3-0.6,5.3-1.8C21.5,210.4,24.1,207.3,27.4,207.3z M27.7,214.4 L27.7,214.4L27.7,214.4z" class="st1"/></g></g><g><g><path d="M227.7,180.4c0,0,25.4-12.1,46.4,5.4c21,17.5,6.2,29,3.1,30.1c-3.1,1.2-8.1,2-11.9-2 c-3.8-4-4.6-4.9-6.8-0.6c-2.2,4.1-3.6,7.5-11.8,8.7s-9.9-7.2-11.1-9c-1.2-1.9-2.9-3.9-6.8,0.6s-13.5,4-17.4-1.6 C207.5,206.5,206.1,193,227.7,180.4z" class="st0"/></g><g><path d="M245.3,225.7c-7.9,0-10.8-7-12-9.9c-0.1-0.3-0.3-0.9-0.4-1.1l0,0c-0.2,0.2-0.6,0.6-1.1,1.1 c-2.4,3-6.5,4.6-11.1,4.4c-5-0.2-9.5-2.6-12-6.2c-2.8-3.9-3.7-9.1-2.6-14.2c1.3-5.7,5.7-14.2,19.9-22.4l0.2-0.1 c0.3-0.1,7-3.3,16.5-4.1c12.6-1.2,24.3,2.3,33.7,10.1c9.4,7.9,13.4,15.6,12.1,23.3c-1.3,7.3-7.4,11.9-10.1,12.9 c-6.3,2.2-11.8,1.2-15.6-2.9c-0.4-0.4-0.7-0.9-1.2-1.3l-0.2,0.4c-2.2,4.3-4.6,8.7-14.1,10C246.5,225.7,245.9,225.7,245.3,225.7z M233,207.3c0.1,0,0.2,0,0.3,0c3.1,0.2,4.7,2.8,5.3,3.7c0.3,0.5,0.6,1.3,1,2c1.7,4,3.2,6,6.6,5.4c6-0.9,6.9-2.7,8.8-6.3l0.3-0.5 c0.9-1.6,2.2-4.3,5-4.6c2.9-0.4,4.7,1.6,7.4,4.6c0.7,0.7,2.8,3,8.1,1.1c0.6-0.2,4.8-2.9,5.5-7.5c0.7-4.9-2.6-10.6-9.7-16.5 c-8-6.6-17.4-9.5-28.3-8.5c-7.7,0.6-13.4,3.1-14.2,3.5c-11.8,6.8-15.4,13.4-16.4,17.7c-1.1,4.7,0.9,7.9,1.4,8.7 c1.3,1.8,3.8,3.1,6.6,3.2c2.2,0.1,4.3-0.6,5.3-1.8C227.2,210.4,229.6,207.3,233,207.3z M233.4,214.4L233.4,214.4L233.4,214.4z" class="st1"/></g></g><g><g><path d="M28.4,247.7H15.8c-4.1,0-7.5-3.4-7.5-7.5l0,0c0-4.1,3.4-7.5,7.5-7.5h12.6c4.1,0,7.5,3.4,7.5,7.5l0,0 C35.9,244.3,32.6,247.7,28.4,247.7z" class="st2"/></g><g><path d="M43.5,270.6H12.1c-2.1,0-3.8-1.7-3.8-3.8v-7.3c0-2.1,1.7-3.8,3.8-3.8h31.5c2.1,0,3.8,1.7,3.8,3.8v7.3 C47.4,268.9,45.7,270.6,43.5,270.6z" class="st1"/></g><g><path d="M34,294H12.1c-2.1,0-3.8-1.7-3.8-3.8v-7.3c0-2.1,1.7-3.8,3.8-3.8H34c2.1,0,3.8,1.7,3.8,3.8v7.3 C37.8,292.3,36.1,294,34,294z" class="st1"/></g><g><path d="M269.3,294h-14.6c-4.1,0-7.5-3.4-7.5-7.5l0,0c0-4.1,3.4-7.5,7.5-7.5h14.6c4.1,0,7.5,3.4,7.5,7.5l0,0 C276.7,290.7,273.4,294,269.3,294z" class="st2"/></g><g><path d="M276.8,270.6h-17.3c-2.1,0-3.8-1.7-3.8-3.8v-7.3c0-2.1,1.7-3.8,3.8-3.8h17.3c2.1,0,3.8,1.7,3.8,3.8v7.3 C280.6,268.9,278.9,270.6,276.8,270.6z" class="st1"/></g><g><path d="M276.8,247.7H251c-2.1,0-3.8-1.7-3.8-3.8v-7.3c0-2.1,1.7-3.8,3.8-3.8h25.8c2.1,0,3.8,1.7,3.8,3.8v7.3 C280.6,245.9,278.9,247.7,276.8,247.7z" class="st1"/></g><g><circle cx="55" cy="238.2" r="9.5" class="st1"/></g><g><circle cx="78.5" cy="240.2" r="9.5" class="st2"/></g><g><circle cx="104.1" cy="240.2" r="9.5" class="st1"/></g><g><circle cx="129.6" cy="240.2" r="9.5" class="st1"/></g><g><circle cx="155.1" cy="240.2" r="9.5" class="st1"/></g><g><circle cx="180.6" cy="240.2" r="9.5" class="st1"/></g><g><circle cx="206.1" cy="240.2" r="9.5" class="st1"/></g><g><circle cx="231.8" cy="240.2" r="9.5" class="st1"/></g><g><circle cx="62.8" cy="263.1" r="9.5" class="st2"/></g><g><circle cx="88.4" cy="263.1" r="9.5" class="st2"/></g><g><circle cx="113.9" cy="263.1" r="9.5" class="st1"/></g><g><circle cx="139.4" cy="263.1" r="9.5" class="st1"/></g><g><circle cx="164.9" cy="263.1" r="9.5" class="st1"/></g><g><circle cx="190.4" cy="263.1" r="9.5" class="st1"/></g><g><circle cx="216" cy="263.1" r="9.5" class="st1"/></g><g><circle cx="241.5" cy="263.1" r="9.5" class="st1"/></g><g><circle cx="53" cy="286.5" r="9.5" class="st1"/></g><g><circle cx="78.5" cy="286.5" r="9.5" class="st1"/></g><g><circle cx="104.1" cy="286.5" r="9.5" class="st1"/></g><g><circle cx="129.6" cy="286.5" r="9.5" class="st1"/></g><g><circle cx="155.4" cy="286.5" r="9.5" class="st1"/></g><g><circle cx="180.6" cy="286.5" r="9.5" class="st1"/></g><g><circle cx="206.1" cy="286.5" r="9.5" class="st2"/></g><g><circle cx="231.8" cy="286.5" r="9.5" class="st2"/></g></g><g><g><path d="M143.5,213.4c-27.7,0-53.2-8.7-71.6-24.4c-9.5-8.1-16.8-17.7-21.9-28.8c-5.3-11.6-8.1-24.3-8.1-38 c0-13.7,2.7-26.6,8.1-38.2C55.1,72.8,62.5,63,71.9,54.9c18.5-16,43.9-24.9,71.6-24.9s53.1,8.8,71.6,24.9 c9.5,8.2,16.8,18,21.9,29.1c5.3,11.6,8.1,24.4,8.1,38.2s-2.7,26.5-8.1,38c-5.1,11.1-12.4,20.7-21.9,28.8 C196.8,204.7,171.3,213.4,143.5,213.4z" class="st0"/></g></g><g><g><path d="M49.6,95.2c0,0-7.7-43.8,0-80.7s63.6,5.8,74.1,24.1S49.6,95.2,49.6,95.2z" class="st0"/></g><g><path d="M60,86.6c0,0-3.1-25.5,0.6-47c3.7-21.4,6.2-22.9,15.8-18.3c9.7,4.6,20.3,11.5,23.8,20.2L77.5,71.9L60,86.6z" class="st2"/></g><g><path d="M60,86.6c0,0,6.1-14.1,12.3-17.1c0,0,0.6-4.6-3.6-8.1c0,0,4.4-1.7,8.8,1.4c0,0-0.1-6.1-7.1-11.3 c0,0,7.9-1.4,16.6,2.6c0,0,0.6-7.8-9.5-17c0,0,10.7-4.1,22.7,4.5l-9.7,27.7L60,86.6z" class="st0"/></g></g><g><g><path d="M237.7,95.2c0,0,7.7-43.8,0-80.7s-63.6,5.8-74.1,24.1S237.7,95.2,237.7,95.2z" class="st0"/></g><g><path d="M227.2,86.6c0,0,3.1-25.5-0.6-47c-3.7-21.4-6.2-22.9-15.8-18.3c-9.7,4.6-20.3,11.5-23.8,20.2l22.7,30.4 L227.2,86.6z" class="st2"/></g><g><path d="M227.2,86.6c0,0-6.1-14.1-12.3-17.1c0,0-0.6-4.6,3.6-8.1c0,0-4.4-1.7-8.8,1.4c0,0,0.1-6.1,7.1-11.3 c0,0-7.9-1.4-16.6,2.6c0,0-0.6-7.8,9.5-17c0,0-10.7-4.1-22.7,4.5l9.7,27.7L227.2,86.6z" class="st0"/></g></g><path d="M146.4,90c25.2,0,50.4,0.3,75.6-0.2c8.1-0.1,10.2,3,9.1,10.3c-1.9,13.2-2,26.9-15.8,34.7 c-23.7,13.5-50.6,1.4-54.4-26.2c-1.8-13.1-9.1-10.6-17.1-11.2c-8.5-0.6-12.5,1.3-14,11c-4.1,26.5-27.1,38.8-50.3,28 c-13.2-6.2-23-28.7-18.7-42.5c1.3-4.3,4.5-3.9,7.7-3.9c25.9,0,51.8,0,77.8,0C146.4,89.9,146.4,90,146.4,90z" class="st1"/><path d="M137.5,130c-3.4-0.1-6.1,0-7.1-3c-0.8-2.4,0.3-4.7,2.6-4.9c6.7-0.7,7.6-5.3,8.3-10.5c0.3-2.6,1.2-5.2,4.4-5.1 c2.5,0.1,3.5,2.2,3.8,4.5c0.7,5.6,1.7,10.6,8.9,11.3c1.8,0.2,2.8,2.3,2.3,4.2c-0.7,3.1-3.4,4-5.8,3.4 C148.7,128.5,142.7,126.2,137.5,130z" class="st1"/><path d="M195.6,97.4c6.8,0,13.7,0,20.5,0c3.3,0,6.5-0.1,6.9,4.7c1.2,13.2-8.9,26.9-22,29.5 c-13.5,2.7-26-4.7-30.3-17.9c-1-3.1-1.4-6.3-2.5-9.4c-2-5.7,0.7-7.1,5.7-7C181.2,97.5,188.4,97.4,195.6,97.4z" class="st0"/><path d="M97.3,97.4c5.4,0,10.8,0.5,16.1-0.1c9.5-1,9.9,2.8,8.5,11.1c-4.2,23.7-25.9,27.1-39.7,20 c-7.8-4-14.3-18-12.5-26.6c1-4.5,4-4.4,7.2-4.4C83.7,97.4,90.5,97.4,97.3,97.4C97.3,97.4,97.3,97.4,97.3,97.4z" class="st0"/><path d="M112,188.1c6.9-0.6,12.3,0.9,17.9,4.5c1.5,1,0.9,3.3-0.8,3.4c-6.5,0.5-11.8-1.3-17.7-4.4 C109.7,190.7,110.2,188.3,112,188.1z" class="st1"/><path d="M228,153.5c0,0,10.1-7.4,28.4-1.8" class="st3"/><path d="M225.8,164.5c0,0,17.9-3.4,26.6,5.5" class="st3"/><path d="M55.9,151.4c0,0-10.1-7.4-28.4-1.8" class="st3"/><path d="M58.1,162.4c0,0-17.9-3.4-26.6,5.5" class="st3"/></g><g><g><path d="M376.7,140.5V56.8h22.2v65.2h35.7v18.5H376.7z" class="st4"/><path d="M484.2,142c-5.1,0-9.8-0.8-14.2-2.3c-4.4-1.5-8.2-3.7-11.5-6.6c-3.2-2.9-5.8-6.4-7.6-10.6 c-1.8-4.2-2.8-9-2.8-14.3c0-5.2,0.9-10,2.8-14.2c1.9-4.2,4.4-7.7,7.5-10.6c3.1-2.9,6.7-5.1,10.8-6.6c4.1-1.5,8.3-2.3,12.6-2.3 c5.1,0,9.5,0.8,13.3,2.4c3.8,1.6,7,3.9,9.6,6.7c2.6,2.8,4.5,6.1,5.8,9.9c1.3,3.8,1.9,7.8,1.9,12.1c0,2-0.1,3.8-0.3,5.5 c-0.2,1.7-0.4,3-0.6,3.7h-41.4c0.9,3.6,2.8,6.2,5.7,7.9c2.8,1.6,6.6,2.4,11.3,2.4c2.6,0,5.1-0.3,7.5-1c2.4-0.6,5.1-1.6,7.9-2.9 l7.2,13.1c-3.9,2.5-8.1,4.4-12.8,5.6C492.5,141.4,488.2,142,484.2,142z M482.6,91.3c-6.4,0-10.4,3.1-12.2,9.3h22.5 C492,94.4,488.6,91.3,482.6,91.3z" class="st4"/><path d="M568.7,142c-5.3,0-9.8-0.7-13.5-2.1c-3.7-1.4-6.6-3.3-8.9-5.9c-2.3-2.5-3.9-5.6-5-9.1 c-1-3.6-1.5-7.5-1.5-11.8V93.3h-15.5V76.9l16.5-0.8l2.8-19.3H562v19.3h25.5v17.3H562v19.5c0,4.6,1.1,7.8,3.2,9.5 c2.1,1.7,5.2,2.5,9.3,2.5c2.2,0,4.3-0.2,6.2-0.6c1.9-0.4,3.8-0.9,5.5-1.5l3.9,16c-2.8,0.8-6,1.5-9.5,2.3 C577,141.7,573.1,142,568.7,142z" class="st4"/><path d="M627,106.1l-5.5-11.5c9.3-3.8,14.2-9.5,14.8-17.1c-0.4,0.1-0.8,0.2-1.2,0.2c-0.3,0-0.7,0.1-1.2,0.1 c-3.8,0-6.9-1.2-9.2-3.5c-2.4-2.3-3.5-5.4-3.5-9.3c0-4.4,1.3-7.8,3.8-10.4c2.5-2.5,5.7-3.8,9.6-3.8c5.4,0,9.5,2,12.3,5.9 c2.8,4,4.2,9.5,4.2,16.6c0,7.3-2,13.7-5.9,19.1C641.4,98,635.3,102.5,627,106.1z" class="st4"/><path d="M710.9,142c-5.6,0-11.2-0.9-16.8-2.8c-5.6-1.9-10.5-4.2-14.6-7l9.3-13.7c4.1,2.4,8.3,4.2,12.6,5.4 c4.3,1.2,8.5,1.8,12.6,1.8c2.8,0,4.9-0.3,6.1-1c1.2-0.7,1.9-1.6,1.9-2.8c0-0.8-0.2-1.4-0.7-1.9c-0.5-0.5-1.2-1-2.3-1.4 s-2.5-0.8-4.4-1.2c-1.8-0.4-4.1-0.9-6.8-1.5c-4.5-0.9-8.2-2.1-11.3-3.4c-3.1-1.3-5.5-2.9-7.5-4.6c-1.9-1.7-3.3-3.6-4.2-5.7 c-0.9-2.1-1.3-4.4-1.3-6.9c0-3.2,0.7-6.1,2.2-8.6c1.5-2.6,3.5-4.8,6.2-6.6s5.9-3.2,9.7-4.2c3.8-1,8-1.5,12.6-1.5 c6.1,0,11.5,1,16.3,2.9c4.8,1.9,8.9,4,12.3,6.1l-9.8,13.1c-3.3-2-6.8-3.5-10.4-4.4c-3.6-1-7.1-1.5-10.4-1.5 c-2.1,0-3.7,0.3-4.9,0.9c-1.2,0.6-1.8,1.5-1.8,2.7c0,0.7,0.2,1.2,0.7,1.7c0.5,0.4,1.2,0.8,2.3,1.2c1,0.4,2.4,0.8,4.1,1.1 c1.7,0.3,3.8,0.8,6.3,1.4c4.8,1.1,8.8,2.3,12,3.6c3.2,1.3,5.8,2.8,7.7,4.4c1.9,1.7,3.3,3.6,4.1,5.7c0.8,2.1,1.2,4.5,1.2,7.1 c0,3-0.7,5.8-2.1,8.4c-1.4,2.6-3.5,4.9-6.3,6.8c-2.8,1.9-6.2,3.4-10.3,4.5C721.1,141.5,716.3,142,710.9,142z" class="st4"/><path d="M840.8,142c-5.2,0-10.2-0.9-15-2.6c-4.8-1.8-9-4.4-12.6-8c-3.7-3.6-6.6-8-8.8-13.4 c-2.2-5.4-3.3-11.6-3.3-18.7c0-7,1.1-13.3,3.2-18.7c2.1-5.5,5.1-10,8.8-13.8c3.7-3.7,8-6.6,13-8.6c5-2,10.3-3,16-3 c5.4,0,10.3,1.1,14.7,3.3c4.4,2.2,8.1,4.7,11.1,7.5l-12.1,13.7c-2-1.7-4-3-6.2-4c-2.1-0.9-4.6-1.4-7.5-1.4c-2.6,0-5,0.6-7.2,1.7 c-2.2,1.1-4.2,2.7-5.8,4.8s-2.9,4.6-3.9,7.6c-0.9,3-1.4,6.4-1.4,10.2c0,7.9,1.8,14,5.4,18.2c3.6,4.2,8.2,6.3,13.9,6.3 c2.7,0,5.3-0.6,7.5-1.9c2.3-1.2,4.3-2.9,6.1-4.8l12.1,13.4c-3.5,4.1-7.7,7.2-12.4,9.3C851.6,141,846.4,142,840.8,142z" class="st4"/><path d="M910.6,142c-4.3,0-8.4-0.8-12.4-2.3c-4-1.5-7.5-3.7-10.6-6.6c-3.1-2.9-5.6-6.4-7.4-10.6 c-1.8-4.2-2.8-9-2.8-14.3s0.9-10.1,2.8-14.3c1.8-4.2,4.3-7.7,7.4-10.6c3.1-2.9,6.6-5.1,10.6-6.6c4-1.5,8.1-2.3,12.4-2.3 c4.2,0,8.3,0.8,12.3,2.3c4,1.5,7.5,3.7,10.6,6.6c3.1,2.9,5.6,6.4,7.5,10.6c1.9,4.2,2.8,9,2.8,14.3s-0.9,10.1-2.8,14.3 c-1.9,4.2-4.4,7.8-7.5,10.6c-3.1,2.9-6.6,5.1-10.6,6.6C918.9,141.3,914.8,142,910.6,142z M910.6,124.3c3.8,0,6.5-1.4,8.1-4.3 c1.6-2.9,2.4-6.8,2.4-11.7c0-4.9-0.8-8.8-2.4-11.7c-1.6-2.9-4.3-4.3-8.1-4.3s-6.5,1.4-8.1,4.3c-1.6,2.9-2.4,6.8-2.4,11.7 c0,4.9,0.8,8.8,2.4,11.7C904.1,122.8,906.8,124.3,910.6,124.3z" class="st4"/><path d="M981.6,142c-4.1,0-7.8-0.8-11.1-2.3c-3.3-1.5-6.1-3.8-8.4-6.7c-2.3-2.9-4.1-6.5-5.4-10.6 c-1.3-4.2-1.9-8.9-1.9-14.1c0-5.2,0.8-10,2.3-14.2c1.5-4.2,3.6-7.7,6.1-10.6c2.5-2.9,5.4-5.1,8.6-6.6c3.3-1.5,6.6-2.3,9.9-2.3 c3.4,0,6.3,0.6,8.6,1.7c2.3,1.1,4.5,2.7,6.4,4.8h0.5l-1-9.3V50.8h22.2v89.7h-18l-1.5-5.9h-0.5c-2.2,2.2-4.8,4-7.8,5.4 C987.4,141.4,984.5,142,981.6,142z M987.3,124c1.8,0,3.4-0.3,4.8-1c1.4-0.6,2.7-1.9,3.9-3.7V95.7c-1.3-1.2-2.6-2-4.1-2.4 c-1.4-0.4-2.9-0.6-4.4-0.6c-2.7,0-5.2,1.2-7.2,3.5c-2.1,2.3-3.1,6.3-3.1,12c0,5.8,0.9,10,2.6,12.4 C981.7,122.8,984.2,124,987.3,124z" class="st4"/><path d="M1069,142c-5.1,0-9.8-0.8-14.2-2.3c-4.4-1.5-8.2-3.7-11.5-6.6c-3.2-2.9-5.8-6.4-7.6-10.6 c-1.8-4.2-2.8-9-2.8-14.3c0-5.2,0.9-10,2.8-14.2c1.9-4.2,4.4-7.7,7.5-10.6c3.1-2.9,6.7-5.1,10.8-6.6s8.3-2.3,12.6-2.3 c5.1,0,9.5,0.8,13.3,2.4c3.8,1.6,7,3.9,9.6,6.7c2.6,2.8,4.5,6.1,5.8,9.9c1.3,3.8,1.9,7.8,1.9,12.1c0,2-0.1,3.8-0.3,5.5 c-0.2,1.7-0.4,3-0.6,3.7h-41.4c0.9,3.6,2.8,6.2,5.7,7.9c2.8,1.6,6.6,2.4,11.3,2.4c2.6,0,5.1-0.3,7.5-1c2.4-0.6,5.1-1.6,7.9-2.9 l7.2,13.1c-3.9,2.5-8.1,4.4-12.8,5.6C1077.4,141.4,1073.1,142,1069,142z M1067.5,91.3c-6.4,0-10.4,3.1-12.2,9.3h22.5 C1076.8,94.4,1073.4,91.3,1067.5,91.3z" class="st4"/><path d="M375.1,269.9l-10.4-83.7h22.7l1,41.5v21.6h0.5c0.5-3.6,1.2-7.2,1.9-10.8c0.8-3.6,1.5-7.2,2.2-10.8l4.6-20.4 h12.9l4.3,20.4c0.6,3.4,1.3,7,2.1,10.6c0.8,3.6,1.5,7.3,2.1,11.1h0.5v-21.6l1-41.5h21.1l-9.7,83.7h-22.9l-3.7-22.9 c-0.4-2.7-0.8-5.5-1.2-8.4c-0.4-2.8-0.6-5.5-0.7-8h-0.4c-0.2,2.5-0.4,5.2-0.8,8c-0.3,2.8-0.7,5.6-1.2,8.4l-3.5,22.9H375.1z" class="st4"/><path d="M475.7,269.9v-47.1h-24.5v-17.3h46.6v64.4H475.7z M486,196.7c-4.1,0-7.5-1.2-10.2-3.5c-2.7-2.4-4-5.5-4-9.3 c0-3.9,1.3-7,4-9.5c2.7-2.4,6.1-3.7,10.2-3.7c4.1,0,7.5,1.2,10.2,3.7c2.7,2.4,4,5.6,4,9.5c0,3.9-1.3,7-4,9.3 C493.5,195.5,490.1,196.7,486,196.7z" class="st4"/><path d="M568.7,271.4c-5.3,0-9.8-0.7-13.5-2.1c-3.7-1.4-6.6-3.3-8.9-5.9c-2.3-2.5-3.9-5.6-5-9.1 c-1-3.6-1.5-7.5-1.5-11.8v-19.8h-15.5v-16.5l16.5-0.8l2.8-19.3H562v19.3h25.5v17.3H562v19.5c0,4.6,1.1,7.8,3.2,9.5 c2.1,1.7,5.2,2.5,9.3,2.5c2.2,0,4.3-0.2,6.2-0.6c1.9-0.4,3.8-0.9,5.5-1.5l3.9,16c-2.8,0.8-6,1.5-9.5,2.3 C577,271.1,573.1,271.4,568.7,271.4z" class="st4"/><path d="M604.5,269.9v-89.7h22.2v20.9l-1.3,11.3h0.5c2.1-2.1,4.8-4,8.1-5.8c3.3-1.8,7.4-2.7,12.2-2.7 c7,0,12.2,2.4,15.5,7.2c3.3,4.8,4.9,11.1,4.9,19.1v39.7h-22.2V233c0-3.6-0.5-6.2-1.6-7.9c-1.1-1.6-3-2.4-5.9-2.4 c-2.1,0-3.9,0.4-5.4,1.3c-1.5,0.9-3.2,2.1-4.9,3.6v42.3H604.5z" class="st4"/><path d="M771.2,271.4c-5.2,0-10.2-0.9-15-2.6c-4.8-1.8-9-4.4-12.6-8c-3.7-3.6-6.6-8-8.8-13.4 c-2.2-5.4-3.3-11.6-3.3-18.7c0-7,1.1-13.3,3.2-18.7c2.1-5.5,5.1-10,8.8-13.8c3.7-3.7,8-6.6,13-8.6c5-2,10.3-3,16-3 c5.4,0,10.3,1.1,14.7,3.3c4.4,2.2,8.1,4.7,11.1,7.5l-12.1,13.7c-2-1.7-4-3-6.2-4c-2.1-0.9-4.6-1.4-7.5-1.4c-2.6,0-5,0.6-7.2,1.7 c-2.2,1.1-4.2,2.7-5.8,4.8s-2.9,4.6-3.9,7.6c-0.9,3-1.4,6.4-1.4,10.2c0,7.9,1.8,14,5.4,18.2c3.6,4.2,8.2,6.3,13.9,6.3 c2.7,0,5.3-0.6,7.5-1.9c2.3-1.2,4.3-2.9,6.1-4.8l12.1,13.4c-3.5,4.1-7.7,7.2-12.4,9.3C782.1,270.4,776.9,271.4,771.2,271.4z" class="st4"/><path d="M830.2,271.4c-3.3,0-6.3-0.5-8.9-1.6c-2.6-1.1-4.8-2.5-6.6-4.3c-1.8-1.8-3.2-3.9-4.1-6.3 c-0.9-2.4-1.4-4.9-1.4-7.6c0-3.6,0.8-6.8,2.3-9.5c1.5-2.7,3.9-5.1,7.1-7c3.2-1.9,7.4-3.5,12.6-4.6c5.2-1.1,11.4-1.9,18.8-2.3 c-0.4-2.3-1.7-4-3.8-5.1c-2.1-1.1-5-1.6-8.6-1.6c-2.7,0-5.6,0.4-8.4,1.4c-2.9,0.9-6.2,2.3-10.1,4.1l-7.7-14.4 c4.9-2.7,9.9-4.9,14.9-6.3c5.1-1.5,10.3-2.2,15.7-2.2c4.6,0,8.7,0.6,12.4,1.7c3.7,1.2,6.9,3,9.5,5.4c2.6,2.4,4.6,5.6,6.1,9.4 c1.4,3.8,2.1,8.4,2.1,13.6v35.8h-18l-1.5-6.7h-0.5c-3.2,2.3-6.6,4.3-10.3,5.9C838.1,270.6,834.2,271.4,830.2,271.4z M837.4,254.4 c2.6,0,4.9-0.5,7-1.5c2.1-1,3.9-2.1,5.7-3.4v-8.2c-4,0.2-7.2,0.5-9.7,1c-2.5,0.5-4.5,1.1-6,1.9c-1.5,0.8-2.5,1.6-3,2.6 c-0.6,0.9-0.8,2-0.8,3.1C830.4,252.9,832.8,254.4,837.4,254.4z" class="st4"/><path d="M929.4,271.4c-5.3,0-9.8-0.7-13.5-2.1c-3.7-1.4-6.6-3.3-8.9-5.9c-2.3-2.5-3.9-5.6-5-9.1 c-1-3.6-1.5-7.5-1.5-11.8v-19.8h-15.5v-16.5l16.5-0.8l2.8-19.3h18.3v19.3h25.5v17.3h-25.5v19.5c0,4.6,1.1,7.8,3.2,9.5 c2.1,1.7,5.2,2.5,9.3,2.5c2.2,0,4.3-0.2,6.2-0.6c1.9-0.4,3.8-0.9,5.5-1.5l3.9,16c-2.8,0.8-6,1.5-9.5,2.3 C937.7,271.1,933.8,271.4,929.4,271.4z" class="st4"/><path d="M1037.3,269.9l2.8-23.2h-11.9l-2.8,23.2h-12.6l2.8-23.2h-9.3v-13.9h10.9l1.5-12.4h-9.9v-13.9h11.7l2.4-20.4 h12.4l-2.4,20.4h12.1l2.4-20.4h12.4l-2.4,20.4h10.2v13.9h-11.8l-1.4,12.4h10.7v13.9h-12.4l-2.8,23.2H1037.3z M1041.8,232.8 l1.5-12.4h-12l-1.4,12.4H1041.8z" class="st4"/></g><g><path d="M1114,269.9v-9h56.9v9H1114z" class="st4"/></g></g></g></svg>